<?xml version="1.0" encoding="utf-8"?>
<!-- Generator: Adobe Illustrator 16.0.0, SVG Export Plug-In . SVG Version: 6.00 Build 0)  -->
<!DOCTYPE svg PUBLIC "-//W3C//DTD SVG 1.1//EN" "http://www.w3.org/Graphics/SVG/1.1/DTD/svg11.dtd">
<svg version="1.1" id="Layer_1" xmlns="http://www.w3.org/2000/svg" xmlns:xlink="http://www.w3.org/1999/xlink" x="0px" y="0px"
	 width="1644px" height="1200px" viewBox="0 0 1644 1200" style="enable-background:new 0 0 1644 1200;" xml:space="preserve">
<style type="text/css">
<![CDATA[
	.st0{fill:#147846;}
	.st1{fill:#1E8FDA;}
	.st2{fill:#EDE021;}
	.st3{fill:#8C8C8C;}
	.st4{fill:#8CDC8C;}
	.st5{fill:none;stroke:#000000;stroke-width:10;stroke-miterlimit:10;}
	.st6{fill:#288C5A;}
	.st7{fill:#FCEE21;}
	.st8{fill:#646464;}
	.st9{fill:#64B464;}
	.st10{fill:#006432;}
	.st11{fill:#0071BC;}
	.st12{fill:#3FA9F5;}
	.st13{fill:#787878;}
	.st14{fill:#78C878;}
	.st15{fill:#DCCD00;}
]]>
</style>
<g>
	<polygon class="st1" points="80,249.5 108,233.5 136,249.5 136,281.5 108,297.5 80,281.5 	"/>
	<polygon class="st1" points="248,249.5 276,233.5 304,249.5 304,281.5 276,297.5 248,281.5 	"/>
	<polygon class="st12" points="136,249.5 164,233.5 192,249.5 192,281.5 164,297.5 136,281.5 	"/>
	<polygon class="st11" points="108,297.5 136,281.5 164,297.5 164,329.5 136,345.5 108,329.5 	"/>
	<polygon class="st11" points="276,297.5 304,281.5 332,297.5 332,329.5 304,345.5 276,329.5 	"/>
	<polygon class="st1" points="164,297.5 192,281.5 220,297.5 220,329.5 192,345.5 164,329.5 	"/>
	<polygon class="st12" points="220,297.5 248,281.5 276,297.5 276,329.5 248,345.5 220,329.5 	"/>
	<polygon class="st12" points="52,297.5 80,281.5 108,297.5 108,329.5 80,345.5 52,329.5 	"/>
	<polygon class="st1" points="164,393.5 192,377.5 220,393.5 220,425.5 192,441.5 164,425.5 	"/>
	<polygon class="st12" points="220,393.5 248,377.5 276,393.5 276,425.5 248,441.5 220,425.5 	"/>
	<polygon class="st11" points="192,345.5 220,329.5 248,345.5 248,377.5 220,393.5 192,377.5 	"/>
	<polygon class="st1" points="164,201.5 192,185.5 220,201.5 220,233.5 192,249.5 164,233.5 	"/>
	<polygon class="st12" points="220,201.5 248,185.5 276,201.5 276,233.5 248,249.5 220,233.5 	"/>
	<polygon class="st11" points="192,249.5 220,233.5 248,249.5 248,281.5 220,297.5 192,281.5 	"/>
	<polygon class="st11" points="108,201.5 136,185.5 164,201.5 164,233.5 136,249.5 108,233.5 	"/>
	<polygon class="st1" points="80,345.5 108,329.5 136,345.5 136,377.5 108,393.5 80,377.5 	"/>
	<polygon class="st1" points="248,345.5 276,329.5 304,345.5 304,377.5 276,393.5 248,377.5 	"/>
	<polygon class="st1" points="332,297.5 345.86,289.5 360,313.5 345.86,337.42 332,329.5 	"/>
	<polygon class="st12" points="136,345.5 164,329.5 192,345.5 192,377.5 164,393.5 136,377.5 	"/>
	<polygon class="st1" points="24,313.5 38.14,289.5 52,297.5 52,329.5 38.14,337 	"/>
	<polygon class="st11" points="108,393.5 136,377.5 164,393.5 164,425.5 136,441.5 108,425.5 	"/>
	<polygon class="st12" points="136,169.5 136,185.5 164,201.5 192,185.5 192,169.5 	"/>
	<polygon class="st12" points="94.14,433.5 108,425.5 108,393.5 80,377.5 66.14,385 	"/>
	<polygon class="st1" points="108,457.5 136,457.5 136,441.5 108,425.5 94.14,433 	"/>
	<polygon class="st11" points="66.14,385.5 80,377.5 80,345.5 52,329.5 38.14,337 	"/>
	<polygon class="st12" points="66.14,241.5 80,249.5 108,233.5 108,201.5 94.14,193 	"/>
	<polygon class="st1" points="94.14,193.5 108,201.5 136,185.5 136,169.5 108,169.5 	"/>
	<polygon class="st11" points="38.14,289.5 52,297.5 80,281.5 80,249.5 66.14,241 	"/>
	<polygon class="st11" points="192,169.5 192,185.5 220,201.5 248,185.5 248,169.5 	"/>
	<polygon class="st12" points="136,457.5 136,441.5 164,425.5 192,441.5 192,457.5 	"/>
	<polygon class="st12" points="318.11,385.56 304,377.5 304,345.5 332,329.5 345.86,337.42 	"/>
	<polygon class="st11" points="290.11,433.56 276,425.5 276,393.5 304,377.5 317.86,385.42 	"/>
	<polygon class="st1" points="276,457.5 248,457.5 248,441.5 276,425.5 289.86,433.42 	"/>
	<polygon class="st12" points="345.86,289.5 332,297.5 304,281.5 304,249.5 317.86,241 	"/>
	<polygon class="st11" points="317.86,241.5 304,249.5 276,233.5 276,201.5 289.86,193 	"/>
	<polygon class="st1" points="289.86,193.5 276,201.5 248,185.5 248,169.5 276,169.5 	"/>
	<polygon class="st11" points="192,457.5 192,441.5 220,425.5 248,441.5 248,457.5 	"/>
	<polygon class="st5" points="108,169.5 24,313.5 108,457.5 276,457.5 360,313.5 276,169.5 	"/>
</g>
<g>
	<polygon class="st0" points="1088,824 1116,808 1144,824 1144,856 1116,872 1088,856 	"/>
	<polygon class="st1" points="1256,824 1284,808 1312,824 1312,856 1284,872 1256,856 	"/>
	<polygon class="st6" points="1144,824 1172,808 1200,824 1200,856 1172,872 1144,856 	"/>
	<polygon class="st10" points="1116,872 1144,856 1172,872 1172,904 1144,920 1116,904 	"/>
	<polygon class="st11" points="1284,872 1312,856 1340,872 1340,904 1312,920 1284,904 	"/>
	<polygon class="st1" points="1172,872 1200,856 1228,872 1228,904 1200,920 1172,904 	"/>
	<polygon class="st12" points="1228,872 1256,856 1284,872 1284,904 1256,920 1228,904 	"/>
	<polygon class="st6" points="1060,872 1088,856 1116,872 1116,904 1088,920 1060,904 	"/>
	<polygon class="st1" points="1172,968 1200,952 1228,968 1228,1000 1200,1016 1172,1000 	"/>
	<polygon class="st12" points="1228,968 1256,952 1284,968 1284,1000 1256,1016 1228,1000 	"/>
	<polygon class="st11" points="1200,920 1228,904 1256,920 1256,952 1228,968 1200,952 	"/>
	<polygon class="st0" points="1172,776 1200,760 1228,776 1228,808 1200,824 1172,808 	"/>
	<polygon class="st6" points="1228,776 1256,760 1284,776 1284,808 1256,824 1228,808 	"/>
	<polygon class="st10" points="1200,824 1228,808 1256,824 1256,856 1228,872 1200,856 	"/>
	<polygon class="st10" points="1116,776 1144,760 1172,776 1172,808 1144,824 1116,808 	"/>
	<polygon class="st1" points="1088,920 1116,904 1144,920 1144,952 1116,968 1088,952 	"/>
	<polygon class="st1" points="1256,920 1284,904 1312,920 1312,952 1284,968 1256,952 	"/>
	<polygon class="st1" points="1340,872 1353.86,864 1368,888 1353.86,911.92 1340,904 	"/>
	<polygon class="st12" points="1144,920 1172,904 1200,920 1200,952 1172,968 1144,952 	"/>
	<polygon class="st0" points="1032,888 1046.14,864 1060,872 1060,904 1046.14,911.5 	"/>
	<polygon class="st11" points="1116,968 1144,952 1172,968 1172,1000 1144,1016 1116,1000 	"/>
	<polygon class="st6" points="1144,744 1144,760 1172,776 1200,760 1200,744 	"/>
	<polygon class="st12" points="1102.14,1008 1116,1000 1116,968 1088,952 1074.14,959.5 	"/>
	<polygon class="st1" points="1116,1032 1144,1032 1144,1016 1116,1000 1102.14,1007.5 	"/>
	<polygon class="st11" points="1074.14,960 1088,952 1088,920 1060,904 1046.14,911.5 	"/>
	<polygon class="st6" points="1074.14,816 1088,824 1116,808 1116,776 1102.14,767.5 	"/>
	<polygon class="st0" points="1102.14,768 1116,776 1144,760 1144,744 1116,744 	"/>
	<polygon class="st10" points="1046.14,864 1060,872 1088,856 1088,824 1074.14,815.5 	"/>
	<polygon class="st10" points="1200,744 1200,760 1228,776 1256,760 1256,744 	"/>
	<polygon class="st12" points="1144,1032 1144,1016 1172,1000 1200,1016 1200,1032 	"/>
	<polygon class="st12" points="1326.11,960.06 1312,952 1312,920 1340,904 1353.86,911.92 	"/>
	<polygon class="st11" points="1298.11,1008.06 1284,1000 1284,968 1312,952 1325.86,959.92 	"/>
	<polygon class="st1" points="1284,1032 1256,1032 1256,1016 1284,1000 1297.86,1007.92 	"/>
	<polygon class="st12" points="1353.86,864 1340,872 1312,856 1312,824 1325.86,815.5 	"/>
	<polygon class="st11" points="1325.86,816 1312,824 1284,808 1284,776 1297.86,767.5 	"/>
	<polygon class="st0" points="1297.86,768 1284,776 1256,760 1256,744 1284,744 	"/>
	<polygon class="st11" points="1200,1032 1200,1016 1228,1000 1256,1016 1256,1032 	"/>
	<polygon class="st5" points="1116,744 1032,888 1116,1032 1284,1032 1368,888 1284,744 	"/>
</g>
<g>
	<polygon class="st0" points="836,968 864,952 892,968 892,1000 864,1016 836,1000 	"/>
	<polygon class="st1" points="1004,968 1032,952 1060,968 1060,1000 1032,1016 1004,1000 	"/>
	<polygon class="st6" points="892,968 920,952 948,968 948,1000 920,1016 892,1000 	"/>
	<polygon class="st10" points="864,1016 892,1000 920,1016 920,1048 892,1064 864,1048 	"/>
	<polygon class="st11" points="1032,1016 1060,1000 1088,1016 1088,1048 1060,1064 1032,1048 	"/>
	<polygon class="st1" points="920,1016 948,1000 976,1016 976,1048 948,1064 920,1048 	"/>
	<polygon class="st12" points="976,1016 1004,1000 1032,1016 1032,1048 1004,1064 976,1048 	"/>
	<polygon class="st6" points="808,1016 836,1000 864,1016 864,1048 836,1064 808,1048 	"/>
	<polygon class="st1" points="920,1112 948,1096 976,1112 976,1144 948,1160 920,1144 	"/>
	<polygon class="st12" points="976,1112 1004,1096 1032,1112 1032,1144 1004,1160 976,1144 	"/>
	<polygon class="st11" points="948,1064 976,1048 1004,1064 1004,1096 976,1112 948,1096 	"/>
	<polygon class="st0" points="920,920 948,904 976,920 976,952 948,968 920,952 	"/>
	<polygon class="st6" points="976,920 1004,904 1032,920 1032,952 1004,968 976,952 	"/>
	<polygon class="st10" points="948,968 976,952 1004,968 1004,1000 976,1016 948,1000 	"/>
	<polygon class="st10" points="864,920 892,904 920,920 920,952 892,968 864,952 	"/>
	<polygon class="st1" points="836,1064 864,1048 892,1064 892,1096 864,1112 836,1096 	"/>
	<polygon class="st1" points="1004,1064 1032,1048 1060,1064 1060,1096 1032,1112 1004,1096 	"/>
	<polygon class="st1" points="1088,1016 1101.86,1008 1116,1032 1101.86,1055.92 1088,1048 	"/>
	<polygon class="st12" points="892,1064 920,1048 948,1064 948,1096 920,1112 892,1096 	"/>
	<polygon class="st0" points="780,1032 794.14,1008 808,1016 808,1048 794.14,1055.5 	"/>
	<polygon class="st11" points="864,1112 892,1096 920,1112 920,1144 892,1160 864,1144 	"/>
	<polygon class="st6" points="892,888 892,904 920,920 948,904 948,888 	"/>
	<polygon class="st12" points="850.14,1152 864,1144 864,1112 836,1096 822.14,1103.5 	"/>
	<polygon class="st1" points="864,1176 892,1176 892,1160 864,1144 850.14,1151.5 	"/>
	<polygon class="st11" points="822.14,1104 836,1096 836,1064 808,1048 794.14,1055.5 	"/>
	<polygon class="st6" points="822.14,960 836,968 864,952 864,920 850.14,911.5 	"/>
	<polygon class="st0" points="850.14,912 864,920 892,904 892,888 864,888 	"/>
	<polygon class="st10" points="794.14,1008 808,1016 836,1000 836,968 822.14,959.5 	"/>
	<polygon class="st10" points="948,888 948,904 976,920 1004,904 1004,888 	"/>
	<polygon class="st12" points="892,1176 892,1160 920,1144 948,1160 948,1176 	"/>
	<polygon class="st12" points="1074.11,1104.06 1060,1096 1060,1064 1088,1048 1101.86,1055.92 	"/>
	<polygon class="st11" points="1046.11,1152.06 1032,1144 1032,1112 1060,1096 1073.86,1103.92 	"/>
	<polygon class="st1" points="1032,1176 1004,1176 1004,1160 1032,1144 1045.86,1151.92 	"/>
	<polygon class="st12" points="1101.86,1008 1088,1016 1060,1000 1060,968 1073.86,959.5 	"/>
	<polygon class="st11" points="1073.86,960 1060,968 1032,952 1032,920 1045.86,911.5 	"/>
	<polygon class="st0" points="1045.86,912 1032,920 1004,904 1004,888 1032,888 	"/>
	<polygon class="st11" points="948,1176 948,1160 976,1144 1004,1160 1004,1176 	"/>
	<polygon class="st5" points="864,888 780,1032 864,1176 1032,1176 1116,1032 1032,888 	"/>
</g>
<g>
	<polygon class="st14" points="836,104 864,88 892,104 892,136 864,152 836,136 	"/>
	<polygon class="st14" points="1004,104 1032,88 1060,104 1060,136 1032,152 1004,136 	"/>
	<polygon class="st4" points="892,104 920,88 948,104 948,136 920,152 892,136 	"/>
	<polygon class="st9" points="864,152 892,136 920,152 920,184 892,200 864,184 	"/>
	<polygon class="st9" points="1032,152 1060,136 1088,152 1088,184 1060,200 1032,184 	"/>
	<polygon class="st14" points="920,152 948,136 976,152 976,184 948,200 920,184 	"/>
	<polygon class="st4" points="976,152 1004,136 1032,152 1032,184 1004,200 976,184 	"/>
	<polygon class="st4" points="808,152 836,136 864,152 864,184 836,200 808,184 	"/>
	<polygon class="st14" points="920,248 948,232 976,248 976,280 948,296 920,280 	"/>
	<polygon class="st4" points="976,248 1004,232 1032,248 1032,280 1004,296 976,280 	"/>
	<polygon class="st9" points="948,200 976,184 1004,200 1004,232 976,248 948,232 	"/>
	<polygon class="st14" points="920,56 948,40 976,56 976,88 948,104 920,88 	"/>
	<polygon class="st4" points="976,56 1004,40 1032,56 1032,88 1004,104 976,88 	"/>
	<polygon class="st9" points="948,104 976,88 1004,104 1004,136 976,152 948,136 	"/>
	<polygon class="st9" points="864,56 892,40 920,56 920,88 892,104 864,88 	"/>
	<polygon class="st14" points="836,200 864,184 892,200 892,232 864,248 836,232 	"/>
	<polygon class="st14" points="1004,200 1032,184 1060,200 1060,232 1032,248 1004,232 	"/>
	<polygon class="st14" points="1088,152 1101.86,144 1116,168 1101.86,191.92 1088,184 	"/>
	<polygon class="st4" points="892,200 920,184 948,200 948,232 920,248 892,232 	"/>
	<polygon class="st14" points="780,168 794.14,144 808,152 808,184 794.14,191.5 	"/>
	<polygon class="st9" points="864,248 892,232 920,248 920,280 892,296 864,280 	"/>
	<polygon class="st4" points="892,24 892,40 920,56 948,40 948,24 	"/>
	<polygon class="st4" points="850.14,288 864,280 864,248 836,232 822.14,239.5 	"/>
	<polygon class="st14" points="864,312 892,312 892,296 864,280 850.14,287.5 	"/>
	<polygon class="st9" points="822.14,240 836,232 836,200 808,184 794.14,191.5 	"/>
	<polygon class="st4" points="822.14,96 836,104 864,88 864,56 850.14,47.5 	"/>
	<polygon class="st14" points="850.14,48 864,56 892,40 892,24 864,24 	"/>
	<polygon class="st9" points="794.14,144 808,152 836,136 836,104 822.14,95.5 	"/>
	<polygon class="st9" points="948,24 948,40 976,56 1004,40 1004,24 	"/>
	<polygon class="st4" points="892,312 892,296 920,280 948,296 948,312 	"/>
	<polygon class="st4" points="1074.11,240.06 1060,232 1060,200 1088,184 1101.86,191.92 	"/>
	<polygon class="st9" points="1046.11,288.06 1032,280 1032,248 1060,232 1073.86,239.92 	"/>
	<polygon class="st14" points="1032,312 1004,312 1004,296 1032,280 1045.86,287.92 	"/>
	<polygon class="st4" points="1101.86,144 1088,152 1060,136 1060,104 1073.86,95.5 	"/>
	<polygon class="st9" points="1073.86,96 1060,104 1032,88 1032,56 1045.86,47.5 	"/>
	<polygon class="st14" points="1045.86,48 1032,56 1004,40 1004,24 1032,24 	"/>
	<polygon class="st9" points="948,312 948,296 976,280 1004,296 1004,312 	"/>
	<polygon class="st5" points="864,24 780,168 864,312 1032,312 1116,168 1032,24 	"/>
</g>
<g>
	<polygon class="st2" points="584,536 612,520 640,536 640,568 612,584 584,568 	"/>
	<polygon class="st14" points="752,536 780,520 808,536 808,568 780,584 752,568 	"/>
	<polygon class="st4" points="640,536 668,520 696,536 696,568 668,584 640,568 	"/>
	<polygon class="st15" points="612,584 640,568 668,584 668,616 640,632 612,616 	"/>
	<polygon class="st9" points="780,584 808,568 836,584 836,616 808,632 780,616 	"/>
	<polygon class="st2" points="668,584 696,568 724,584 724,616 696,632 668,616 	"/>
	<polygon class="st4" points="724,584 752,568 780,584 780,616 752,632 724,616 	"/>
	<polygon class="st7" points="556,584 584,568 612,584 612,616 584,632 556,616 	"/>
	<polygon class="st2" points="668,680 696,664 724,680 724,712 696,728 668,712 	"/>
	<polygon class="st7" points="724,680 752,664 780,680 780,712 752,728 724,712 	"/>
	<polygon class="st15" points="696,632 724,616 752,632 752,664 724,680 696,664 	"/>
	<polygon class="st14" points="668,488 696,472 724,488 724,520 696,536 668,520 	"/>
	<polygon class="st4" points="724,488 752,472 780,488 780,520 752,536 724,520 	"/>
	<polygon class="st9" points="696,536 724,520 752,536 752,568 724,584 696,568 	"/>
	<polygon class="st9" points="612,488 640,472 668,488 668,520 640,536 612,520 	"/>
	<polygon class="st2" points="584,632 612,616 640,632 640,664 612,680 584,664 	"/>
	<polygon class="st2" points="752,632 780,616 808,632 808,664 780,680 752,664 	"/>
	<polygon class="st14" points="836,584 849.86,576 864,600 849.86,623.92 836,616 	"/>
	<polygon class="st7" points="640,632 668,616 696,632 696,664 668,680 640,664 	"/>
	<polygon class="st2" points="528,600 542.14,576 556,584 556,616 542.14,623.5 	"/>
	<polygon class="st15" points="612,680 640,664 668,680 668,712 640,728 612,712 	"/>
	<polygon class="st4" points="640,456 640,472 668,488 696,472 696,456 	"/>
	<polygon class="st7" points="598.14,720 612,712 612,680 584,664 570.14,671.5 	"/>
	<polygon class="st2" points="612,744 640,744 640,728 612,712 598.14,719.5 	"/>
	<polygon class="st15" points="570.14,672 584,664 584,632 556,616 542.14,623.5 	"/>
	<polygon class="st7" points="570.14,528 584,536 612,520 612,488 598.14,479.5 	"/>
	<polygon class="st14" points="598.14,480 612,488 640,472 640,456 612,456 	"/>
	<polygon class="st15" points="542.14,576 556,584 584,568 584,536 570.14,527.5 	"/>
	<polygon class="st9" points="696,456 696,472 724,488 752,472 752,456 	"/>
	<polygon class="st7" points="640,744 640,728 668,712 696,728 696,744 	"/>
	<polygon class="st7" points="822.11,672.06 808,664 808,632 836,616 849.86,623.92 	"/>
	<polygon class="st15" points="794.11,720.06 780,712 780,680 808,664 821.86,671.92 	"/>
	<polygon class="st2" points="780,744 752,744 752,728 780,712 793.86,719.92 	"/>
	<polygon class="st4" points="849.86,576 836,584 808,568 808,536 821.86,527.5 	"/>
	<polygon class="st9" points="821.86,528 808,536 780,520 780,488 793.86,479.5 	"/>
	<polygon class="st14" points="793.86,480 780,488 752,472 752,456 780,456 	"/>
	<polygon class="st15" points="696,744 696,728 724,712 752,728 752,744 	"/>
	<polygon class="st5" points="612,456 528,600 612,744 780,744 864,600 780,456 	"/>
</g>
<g>
	<polygon class="st2" points="584,248 612,232 640,248 640,280 612,296 584,280 	"/>
	<polygon class="st14" points="752,248 780,232 808,248 808,280 780,296 752,280 	"/>
	<polygon class="st7" points="640,248 668,232 696,248 696,280 668,296 640,280 	"/>
	<polygon class="st15" points="612,296 640,280 668,296 668,328 640,344 612,328 	"/>
	<polygon class="st9" points="780,296 808,280 836,296 836,328 808,344 780,328 	"/>
	<polygon class="st14" points="668,296 696,280 724,296 724,328 696,344 668,328 	"/>
	<polygon class="st4" points="724,296 752,280 780,296 780,328 752,344 724,328 	"/>
	<polygon class="st7" points="556,296 584,280 612,296 612,328 584,344 556,328 	"/>
	<polygon class="st14" points="668,392 696,376 724,392 724,424 696,440 668,424 	"/>
	<polygon class="st4" points="724,392 752,376 780,392 780,424 752,440 724,424 	"/>
	<polygon class="st9" points="696,344 724,328 752,344 752,376 724,392 696,376 	"/>
	<polygon class="st14" points="668,200 696,184 724,200 724,232 696,248 668,232 	"/>
	<polygon class="st4" points="724,200 752,184 780,200 780,232 752,248 724,232 	"/>
	<polygon class="st9" points="696,248 724,232 752,248 752,280 724,296 696,280 	"/>
	<polygon class="st15" points="612,200 640,184 668,200 668,232 640,248 612,232 	"/>
	<polygon class="st2" points="584,344 612,328 640,344 640,376 612,392 584,376 	"/>
	<polygon class="st14" points="752,344 780,328 808,344 808,376 780,392 752,376 	"/>
	<polygon class="st14" points="836,296 849.86,288 864,312 849.86,335.92 836,328 	"/>
	<polygon class="st7" points="640,344 668,328 696,344 696,376 668,392 640,376 	"/>
	<polygon class="st2" points="528,312 542.14,288 556,296 556,328 542.14,335.5 	"/>
	<polygon class="st15" points="612,392 640,376 668,392 668,424 640,440 612,424 	"/>
	<polygon class="st4" points="640,168 640,184 668,200 696,184 696,168 	"/>
	<polygon class="st7" points="598.14,432 612,424 612,392 584,376 570.14,383.5 	"/>
	<polygon class="st2" points="612,456 640,456 640,440 612,424 598.14,431.5 	"/>
	<polygon class="st15" points="570.14,384 584,376 584,344 556,328 542.14,335.5 	"/>
	<polygon class="st7" points="570.14,240 584,248 612,232 612,200 598.14,191.5 	"/>
	<polygon class="st2" points="598.14,192 612,200 640,184 640,168 612,168 	"/>
	<polygon class="st15" points="542.14,288 556,296 584,280 584,248 570.14,239.5 	"/>
	<polygon class="st9" points="696,168 696,184 724,200 752,184 752,168 	"/>
	<polygon class="st4" points="640,456 640,440 668,424 696,440 696,456 	"/>
	<polygon class="st4" points="822.11,384.06 808,376 808,344 836,328 849.86,335.92 	"/>
	<polygon class="st9" points="794.11,432.06 780,424 780,392 808,376 821.86,383.92 	"/>
	<polygon class="st14" points="780,456 752,456 752,440 780,424 793.86,431.92 	"/>
	<polygon class="st4" points="849.86,288 836,296 808,280 808,248 821.86,239.5 	"/>
	<polygon class="st9" points="821.86,240 808,248 780,232 780,200 793.86,191.5 	"/>
	<polygon class="st14" points="793.86,192 780,200 752,184 752,168 780,168 	"/>
	<polygon class="st9" points="696,456 696,440 724,424 752,440 752,456 	"/>
	<polygon class="st5" points="612,168 528,312 612,456 780,456 864,312 780,168 	"/>
</g>
<g>
	<polygon class="st1" points="80,536 108,520 136,536 136,568 108,584 80,568 	"/>
	<polygon class="st13" points="248,536 276,520 304,536 304,568 276,584 248,568 	"/>
	<polygon class="st12" points="136,536 164,520 192,536 192,568 164,584 136,568 	"/>
	<polygon class="st11" points="108,584 136,568 164,584 164,616 136,632 108,616 	"/>
	<polygon class="st8" points="276,584 304,568 332,584 332,616 304,632 276,616 	"/>
	<polygon class="st13" points="164,584 192,568 220,584 220,616 192,632 164,616 	"/>
	<polygon class="st3" points="220,584 248,568 276,584 276,616 248,632 220,616 	"/>
	<polygon class="st12" points="52,584 80,568 108,584 108,616 80,632 52,616 	"/>
	<polygon class="st13" points="164,680 192,664 220,680 220,712 192,728 164,712 	"/>
	<polygon class="st3" points="220,680 248,664 276,680 276,712 248,728 220,712 	"/>
	<polygon class="st8" points="192,632 220,616 248,632 248,664 220,680 192,664 	"/>
	<polygon class="st1" points="164,488 192,472 220,488 220,520 192,536 164,520 	"/>
	<polygon class="st12" points="220,488 248,472 276,488 276,520 248,536 220,520 	"/>
	<polygon class="st11" points="192,536 220,520 248,536 248,568 220,584 192,568 	"/>
	<polygon class="st11" points="108,488 136,472 164,488 164,520 136,536 108,520 	"/>
	<polygon class="st1" points="80,632 108,616 136,632 136,664 108,680 80,664 	"/>
	<polygon class="st13" points="248,632 276,616 304,632 304,664 276,680 248,664 	"/>
	<polygon class="st13" points="332,584 345.86,576 360,600 345.86,623.92 332,616 	"/>
	<polygon class="st3" points="136,632 164,616 192,632 192,664 164,680 136,664 	"/>
	<polygon class="st1" points="24,600 38.14,576 52,584 52,616 38.14,623.5 	"/>
	<polygon class="st8" points="108,680 136,664 164,680 164,712 136,728 108,712 	"/>
	<polygon class="st12" points="136,456 136,472 164,488 192,472 192,456 	"/>
	<polygon class="st12" points="94.14,720 108,712 108,680 80,664 66.14,671.5 	"/>
	<polygon class="st13" points="108,744 136,744 136,728 108,712 94.14,719.5 	"/>
	<polygon class="st11" points="66.14,672 80,664 80,632 52,616 38.14,623.5 	"/>
	<polygon class="st12" points="66.14,528 80,536 108,520 108,488 94.14,479.5 	"/>
	<polygon class="st1" points="94.14,480 108,488 136,472 136,456 108,456 	"/>
	<polygon class="st11" points="38.14,576 52,584 80,568 80,536 66.14,527.5 	"/>
	<polygon class="st11" points="192,456 192,472 220,488 248,472 248,456 	"/>
	<polygon class="st3" points="136,744 136,728 164,712 192,728 192,744 	"/>
	<polygon class="st3" points="318.11,672.06 304,664 304,632 332,616 345.86,623.92 	"/>
	<polygon class="st8" points="290.11,720.06 276,712 276,680 304,664 317.86,671.92 	"/>
	<polygon class="st13" points="276,744 248,744 248,728 276,712 289.86,719.92 	"/>
	<polygon class="st3" points="345.86,576 332,584 304,568 304,536 317.86,527.5 	"/>
	<polygon class="st8" points="317.86,528 304,536 276,520 276,488 289.86,479.5 	"/>
	<polygon class="st1" points="289.86,480 276,488 248,472 248,456 276,456 	"/>
	<polygon class="st8" points="192,744 192,728 220,712 248,728 248,744 	"/>
	<polygon class="st5" points="108,456 24,600 108,744 276,744 360,600 276,456 	"/>
</g>
<g>
	<polygon class="st13" points="1088,248 1116,232 1144,248 1144,280 1116,296 1088,280 	"/>
	<polygon class="st13" points="1256,248 1284,232 1312,248 1312,280 1284,296 1256,280 	"/>
	<polygon class="st3" points="1144,248 1172,232 1200,248 1200,280 1172,296 1144,280 	"/>
	<polygon class="st10" points="1116,296 1144,280 1172,296 1172,328 1144,344 1116,328 	"/>
	<polygon class="st8" points="1284,296 1312,280 1340,296 1340,328 1312,344 1284,328 	"/>
	<polygon class="st13" points="1172,296 1200,280 1228,296 1228,328 1200,344 1172,328 	"/>
	<polygon class="st3" points="1228,296 1256,280 1284,296 1284,328 1256,344 1228,328 	"/>
	<polygon class="st6" points="1060,296 1088,280 1116,296 1116,328 1088,344 1060,328 	"/>
	<polygon class="st13" points="1172,392 1200,376 1228,392 1228,424 1200,440 1172,424 	"/>
	<polygon class="st3" points="1228,392 1256,376 1284,392 1284,424 1256,440 1228,424 	"/>
	<polygon class="st8" points="1200,344 1228,328 1256,344 1256,376 1228,392 1200,376 	"/>
	<polygon class="st13" points="1172,200 1200,184 1228,200 1228,232 1200,248 1172,232 	"/>
	<polygon class="st3" points="1228,200 1256,184 1284,200 1284,232 1256,248 1228,232 	"/>
	<polygon class="st8" points="1200,248 1228,232 1256,248 1256,280 1228,296 1200,280 	"/>
	<polygon class="st8" points="1116,200 1144,184 1172,200 1172,232 1144,248 1116,232 	"/>
	<polygon class="st0" points="1088,344 1116,328 1144,344 1144,376 1116,392 1088,376 	"/>
	<polygon class="st13" points="1256,344 1284,328 1312,344 1312,376 1284,392 1256,376 	"/>
	<polygon class="st13" points="1340,296 1353.86,288 1368,312 1353.86,335.92 1340,328 	"/>
	<polygon class="st6" points="1144,344 1172,328 1200,344 1200,376 1172,392 1144,376 	"/>
	<polygon class="st0" points="1032,312 1046.14,288 1060,296 1060,328 1046.14,335.5 	"/>
	<polygon class="st10" points="1116,392 1144,376 1172,392 1172,424 1144,440 1116,424 	"/>
	<polygon class="st3" points="1144,168 1144,184 1172,200 1200,184 1200,168 	"/>
	<polygon class="st6" points="1102.14,432 1116,424 1116,392 1088,376 1074.14,383.5 	"/>
	<polygon class="st0" points="1116,456 1144,456 1144,440 1116,424 1102.14,431.5 	"/>
	<polygon class="st10" points="1074.14,384 1088,376 1088,344 1060,328 1046.14,335.5 	"/>
	<polygon class="st3" points="1074.14,240 1088,248 1116,232 1116,200 1102.14,191.5 	"/>
	<polygon class="st13" points="1102.14,192 1116,200 1144,184 1144,168 1116,168 	"/>
	<polygon class="st8" points="1046.14,288 1060,296 1088,280 1088,248 1074.14,239.5 	"/>
	<polygon class="st8" points="1200,168 1200,184 1228,200 1256,184 1256,168 	"/>
	<polygon class="st3" points="1144,456 1144,440 1172,424 1200,440 1200,456 	"/>
	<polygon class="st3" points="1326.11,384.06 1312,376 1312,344 1340,328 1353.86,335.92 	"/>
	<polygon class="st8" points="1298.11,432.06 1284,424 1284,392 1312,376 1325.86,383.92 	"/>
	<polygon class="st13" points="1284,456 1256,456 1256,440 1284,424 1297.86,431.92 	"/>
	<polygon class="st3" points="1353.86,288 1340,296 1312,280 1312,248 1325.86,239.5 	"/>
	<polygon class="st8" points="1325.86,240 1312,248 1284,232 1284,200 1297.86,191.5 	"/>
	<polygon class="st13" points="1297.86,192 1284,200 1256,184 1256,168 1284,168 	"/>
	<polygon class="st8" points="1200,456 1200,440 1228,424 1256,440 1256,456 	"/>
	<polygon class="st5" points="1116,168 1032,312 1116,456 1284,456 1368,312 1284,168 	"/>
</g>
<g>
	<polygon class="st13" points="1340,104 1368,88 1396,104 1396,136 1368,152 1340,136 	"/>
	<polygon class="st13" points="1508,104 1536,88 1564,104 1564,136 1536,152 1508,136 	"/>
	<polygon class="st3" points="1396,104 1424,88 1452,104 1452,136 1424,152 1396,136 	"/>
	<polygon class="st8" points="1368,152 1396,136 1424,152 1424,184 1396,200 1368,184 	"/>
	<polygon class="st8" points="1536,152 1564,136 1592,152 1592,184 1564,200 1536,184 	"/>
	<polygon class="st13" points="1424,152 1452,136 1480,152 1480,184 1452,200 1424,184 	"/>
	<polygon class="st3" points="1480,152 1508,136 1536,152 1536,184 1508,200 1480,184 	"/>
	<polygon class="st3" points="1312,152 1340,136 1368,152 1368,184 1340,200 1312,184 	"/>
	<polygon class="st13" points="1424,248 1452,232 1480,248 1480,280 1452,296 1424,280 	"/>
	<polygon class="st3" points="1480,248 1508,232 1536,248 1536,280 1508,296 1480,280 	"/>
	<polygon class="st8" points="1452,200 1480,184 1508,200 1508,232 1480,248 1452,232 	"/>
	<polygon class="st13" points="1424,56 1452,40 1480,56 1480,88 1452,104 1424,88 	"/>
	<polygon class="st3" points="1480,56 1508,40 1536,56 1536,88 1508,104 1480,88 	"/>
	<polygon class="st8" points="1452,104 1480,88 1508,104 1508,136 1480,152 1452,136 	"/>
	<polygon class="st8" points="1368,56 1396,40 1424,56 1424,88 1396,104 1368,88 	"/>
	<polygon class="st13" points="1340,200 1368,184 1396,200 1396,232 1368,248 1340,232 	"/>
	<polygon class="st13" points="1508,200 1536,184 1564,200 1564,232 1536,248 1508,232 	"/>
	<polygon class="st13" points="1592,152 1605.86,144 1620,168 1605.86,191.92 1592,184 	"/>
	<polygon class="st3" points="1396,200 1424,184 1452,200 1452,232 1424,248 1396,232 	"/>
	<polygon class="st13" points="1284,168 1298.14,144 1312,152 1312,184 1298.14,191.5 	"/>
	<polygon class="st8" points="1368,248 1396,232 1424,248 1424,280 1396,296 1368,280 	"/>
	<polygon class="st3" points="1396,24 1396,40 1424,56 1452,40 1452,24 	"/>
	<polygon class="st3" points="1354.14,288 1368,280 1368,248 1340,232 1326.14,239.5 	"/>
	<polygon class="st13" points="1368,312 1396,312 1396,296 1368,280 1354.14,287.5 	"/>
	<polygon class="st8" points="1326.14,240 1340,232 1340,200 1312,184 1298.14,191.5 	"/>
	<polygon class="st3" points="1326.14,96 1340,104 1368,88 1368,56 1354.14,47.5 	"/>
	<polygon class="st13" points="1354.14,48 1368,56 1396,40 1396,24 1368,24 	"/>
	<polygon class="st8" points="1298.14,144 1312,152 1340,136 1340,104 1326.14,95.5 	"/>
	<polygon class="st8" points="1452,24 1452,40 1480,56 1508,40 1508,24 	"/>
	<polygon class="st3" points="1396,312 1396,296 1424,280 1452,296 1452,312 	"/>
	<polygon class="st3" points="1578.11,240.06 1564,232 1564,200 1592,184 1605.86,191.92 	"/>
	<polygon class="st8" points="1550.11,288.06 1536,280 1536,248 1564,232 1577.86,239.92 	"/>
	<polygon class="st13" points="1536,312 1508,312 1508,296 1536,280 1549.86,287.92 	"/>
	<polygon class="st3" points="1605.86,144 1592,152 1564,136 1564,104 1577.86,95.5 	"/>
	<polygon class="st8" points="1577.86,96 1564,104 1536,88 1536,56 1549.86,47.5 	"/>
	<polygon class="st13" points="1549.86,48 1536,56 1508,40 1508,24 1536,24 	"/>
	<polygon class="st8" points="1452,312 1452,296 1480,280 1508,296 1508,312 	"/>
	<polygon class="st5" points="1368,24 1284,168 1368,312 1536,312 1620,168 1536,24 	"/>
</g>
<g>
	<polygon class="st13" points="1340,392 1368,376 1396,392 1396,424 1368,440 1340,424 	"/>
	<polygon class="st13" points="1508,392 1536,376 1564,392 1564,424 1536,440 1508,424 	"/>
	<polygon class="st3" points="1396,392 1424,376 1452,392 1452,424 1424,440 1396,424 	"/>
	<polygon class="st8" points="1368,440 1396,424 1424,440 1424,472 1396,488 1368,472 	"/>
	<polygon class="st8" points="1536,440 1564,424 1592,440 1592,472 1564,488 1536,472 	"/>
	<polygon class="st13" points="1424,440 1452,424 1480,440 1480,472 1452,488 1424,472 	"/>
	<polygon class="st3" points="1480,440 1508,424 1536,440 1536,472 1508,488 1480,472 	"/>
	<polygon class="st3" points="1312,440 1340,424 1368,440 1368,472 1340,488 1312,472 	"/>
	<polygon class="st13" points="1424,536 1452,520 1480,536 1480,568 1452,584 1424,568 	"/>
	<polygon class="st3" points="1480,536 1508,520 1536,536 1536,568 1508,584 1480,568 	"/>
	<polygon class="st8" points="1452,488 1480,472 1508,488 1508,520 1480,536 1452,520 	"/>
	<polygon class="st13" points="1424,344 1452,328 1480,344 1480,376 1452,392 1424,376 	"/>
	<polygon class="st3" points="1480,344 1508,328 1536,344 1536,376 1508,392 1480,376 	"/>
	<polygon class="st8" points="1452,392 1480,376 1508,392 1508,424 1480,440 1452,424 	"/>
	<polygon class="st8" points="1368,344 1396,328 1424,344 1424,376 1396,392 1368,376 	"/>
	<polygon class="st13" points="1340,488 1368,472 1396,488 1396,520 1368,536 1340,520 	"/>
	<polygon class="st13" points="1508,488 1536,472 1564,488 1564,520 1536,536 1508,520 	"/>
	<polygon class="st13" points="1592,440 1605.86,432 1620,456 1605.86,479.92 1592,472 	"/>
	<polygon class="st3" points="1396,488 1424,472 1452,488 1452,520 1424,536 1396,520 	"/>
	<polygon class="st13" points="1284,456 1298.14,432 1312,440 1312,472 1298.14,479.5 	"/>
	<polygon class="st8" points="1368,536 1396,520 1424,536 1424,568 1396,584 1368,568 	"/>
	<polygon class="st3" points="1396,312 1396,328 1424,344 1452,328 1452,312 	"/>
	<polygon class="st3" points="1354.14,576 1368,568 1368,536 1340,520 1326.14,527.5 	"/>
	<polygon class="st13" points="1368,600 1396,600 1396,584 1368,568 1354.14,575.5 	"/>
	<polygon class="st8" points="1326.14,528 1340,520 1340,488 1312,472 1298.14,479.5 	"/>
	<polygon class="st3" points="1326.14,384 1340,392 1368,376 1368,344 1354.14,335.5 	"/>
	<polygon class="st13" points="1354.14,336 1368,344 1396,328 1396,312 1368,312 	"/>
	<polygon class="st8" points="1298.14,432 1312,440 1340,424 1340,392 1326.14,383.5 	"/>
	<polygon class="st8" points="1452,312 1452,328 1480,344 1508,328 1508,312 	"/>
	<polygon class="st3" points="1396,600 1396,584 1424,568 1452,584 1452,600 	"/>
	<polygon class="st3" points="1578.11,528.06 1564,520 1564,488 1592,472 1605.86,479.92 	"/>
	<polygon class="st8" points="1550.11,576.06 1536,568 1536,536 1564,520 1577.86,527.92 	"/>
	<polygon class="st13" points="1536,600 1508,600 1508,584 1536,568 1549.86,575.92 	"/>
	<polygon class="st3" points="1605.86,432 1592,440 1564,424 1564,392 1577.86,383.5 	"/>
	<polygon class="st8" points="1577.86,384 1564,392 1536,376 1536,344 1549.86,335.5 	"/>
	<polygon class="st13" points="1549.86,336 1536,344 1508,328 1508,312 1536,312 	"/>
	<polygon class="st8" points="1452,600 1452,584 1480,568 1508,584 1508,600 	"/>
	<polygon class="st5" points="1368,312 1284,456 1368,600 1536,600 1620,456 1536,312 	"/>
</g>
<g>
	<polygon class="st13" points="80,824 108,808 136,824 136,856 108,872 80,856 	"/>
	<polygon class="st13" points="248,824 276,808 304,824 304,856 276,872 248,856 	"/>
	<polygon class="st3" points="136,824 164,808 192,824 192,856 164,872 136,856 	"/>
	<polygon class="st8" points="108,872 136,856 164,872 164,904 136,920 108,904 	"/>
	<polygon class="st8" points="276,872 304,856 332,872 332,904 304,920 276,904 	"/>
	<polygon class="st13" points="164,872 192,856 220,872 220,904 192,920 164,904 	"/>
	<polygon class="st3" points="220,872 248,856 276,872 276,904 248,920 220,904 	"/>
	<polygon class="st3" points="52,872 80,856 108,872 108,904 80,920 52,904 	"/>
	<polygon class="st13" points="164,968 192,952 220,968 220,1000 192,1016 164,1000 	"/>
	<polygon class="st3" points="220,968 248,952 276,968 276,1000 248,1016 220,1000 	"/>
	<polygon class="st8" points="192,920 220,904 248,920 248,952 220,968 192,952 	"/>
	<polygon class="st13" points="164,776 192,760 220,776 220,808 192,824 164,808 	"/>
	<polygon class="st3" points="220,776 248,760 276,776 276,808 248,824 220,808 	"/>
	<polygon class="st8" points="192,824 220,808 248,824 248,856 220,872 192,856 	"/>
	<polygon class="st8" points="108,776 136,760 164,776 164,808 136,824 108,808 	"/>
	<polygon class="st13" points="80,920 108,904 136,920 136,952 108,968 80,952 	"/>
	<polygon class="st13" points="248,920 276,904 304,920 304,952 276,968 248,952 	"/>
	<polygon class="st13" points="332,872 345.86,864 360,888 345.86,911.92 332,904 	"/>
	<polygon class="st3" points="136,920 164,904 192,920 192,952 164,968 136,952 	"/>
	<polygon class="st13" points="24,888 38.14,864 52,872 52,904 38.14,911.5 	"/>
	<polygon class="st8" points="108,968 136,952 164,968 164,1000 136,1016 108,1000 	"/>
	<polygon class="st3" points="136,744 136,760 164,776 192,760 192,744 	"/>
	<polygon class="st3" points="94.14,1008 108,1000 108,968 80,952 66.14,959.5 	"/>
	<polygon class="st13" points="108,1032 136,1032 136,1016 108,1000 94.14,1007.5 	"/>
	<polygon class="st8" points="66.14,960 80,952 80,920 52,904 38.14,911.5 	"/>
	<polygon class="st3" points="66.14,816 80,824 108,808 108,776 94.14,767.5 	"/>
	<polygon class="st13" points="94.14,768 108,776 136,760 136,744 108,744 	"/>
	<polygon class="st8" points="38.14,864 52,872 80,856 80,824 66.14,815.5 	"/>
	<polygon class="st8" points="192,744 192,760 220,776 248,760 248,744 	"/>
	<polygon class="st3" points="136,1032 136,1016 164,1000 192,1016 192,1032 	"/>
	<polygon class="st3" points="318.11,960.06 304,952 304,920 332,904 345.86,911.92 	"/>
	<polygon class="st8" points="290.11,1008.06 276,1000 276,968 304,952 317.86,959.92 	"/>
	<polygon class="st13" points="276,1032 248,1032 248,1016 276,1000 289.86,1007.92 	"/>
	<polygon class="st3" points="345.86,864 332,872 304,856 304,824 317.86,815.5 	"/>
	<polygon class="st8" points="317.86,816 304,824 276,808 276,776 289.86,767.5 	"/>
	<polygon class="st13" points="289.86,768 276,776 248,760 248,744 276,744 	"/>
	<polygon class="st8" points="192,1032 192,1016 220,1000 248,1016 248,1032 	"/>
	<polygon class="st5" points="108,744 24,888 108,1032 276,1032 360,888 276,744 	"/>
</g>
<g>
	<polygon class="st14" points="836,393.5 864,377.5 892,393.5 892,425.5 864,441.5 836,425.5 	"/>
	<polygon class="st0" points="1004,393.5 1032,377.5 1060,393.5 1060,425.5 1032,441.5 1004,425.5 	"/>
	<polygon class="st4" points="892,393.5 920,377.5 948,393.5 948,425.5 920,441.5 892,425.5 	"/>
	<polygon class="st9" points="864,441.5 892,425.5 920,441.5 920,473.5 892,489.5 864,473.5 	"/>
	<polygon class="st10" points="1032,441.5 1060,425.5 1088,441.5 1088,473.5 1060,489.5 1032,473.5 	"/>
	<polygon class="st0" points="920,441.5 948,425.5 976,441.5 976,473.5 948,489.5 920,473.5 	"/>
	<polygon class="st6" points="976,441.5 1004,425.5 1032,441.5 1032,473.5 1004,489.5 976,473.5 	"/>
	<polygon class="st4" points="808,441.5 836,425.5 864,441.5 864,473.5 836,489.5 808,473.5 	"/>
	<polygon class="st0" points="920,537.5 948,521.5 976,537.5 976,569.5 948,585.5 920,569.5 	"/>
	<polygon class="st6" points="976,537.5 1004,521.5 1032,537.5 1032,569.5 1004,585.5 976,569.5 	"/>
	<polygon class="st10" points="948,489.5 976,473.5 1004,489.5 1004,521.5 976,537.5 948,521.5 	"/>
	<polygon class="st14" points="920,345.5 948,329.5 976,345.5 976,377.5 948,393.5 920,377.5 	"/>
	<polygon class="st6" points="976,345.5 1004,329.5 1032,345.5 1032,377.5 1004,393.5 976,377.5 	"/>
	<polygon class="st10" points="948,393.5 976,377.5 1004,393.5 1004,425.5 976,441.5 948,425.5 	"/>
	<polygon class="st9" points="864,345.5 892,329.5 920,345.5 920,377.5 892,393.5 864,377.5 	"/>
	<polygon class="st14" points="836,489.5 864,473.5 892,489.5 892,521.5 864,537.5 836,521.5 	"/>
	<polygon class="st0" points="1004,489.5 1032,473.5 1060,489.5 1060,521.5 1032,537.5 1004,521.5 	"/>
	<polygon class="st0" points="1088,441.5 1101.86,433.5 1116,457.5 1101.86,481.42 1088,473.5 	"/>
	<polygon class="st4" points="892,489.5 920,473.5 948,489.5 948,521.5 920,537.5 892,521.5 	"/>
	<polygon class="st14" points="780,457.5 794.14,433.5 808,441.5 808,473.5 794.14,481 	"/>
	<polygon class="st9" points="864,537.5 892,521.5 920,537.5 920,569.5 892,585.5 864,569.5 	"/>
	<polygon class="st4" points="892,313.5 892,329.5 920,345.5 948,329.5 948,313.5 	"/>
	<polygon class="st4" points="850.14,577.5 864,569.5 864,537.5 836,521.5 822.14,529 	"/>
	<polygon class="st14" points="864,601.5 892,601.5 892,585.5 864,569.5 850.14,577 	"/>
	<polygon class="st9" points="822.14,529.5 836,521.5 836,489.5 808,473.5 794.14,481 	"/>
	<polygon class="st4" points="822.14,385.5 836,393.5 864,377.5 864,345.5 850.14,337 	"/>
	<polygon class="st14" points="850.14,337.5 864,345.5 892,329.5 892,313.5 864,313.5 	"/>
	<polygon class="st9" points="794.14,433.5 808,441.5 836,425.5 836,393.5 822.14,385 	"/>
	<polygon class="st9" points="948,313.5 948,329.5 976,345.5 1004,329.5 1004,313.5 	"/>
	<polygon class="st6" points="892,601.5 892,585.5 920,569.5 948,585.5 948,601.5 	"/>
	<polygon class="st6" points="1074.11,529.56 1060,521.5 1060,489.5 1088,473.5 1101.86,481.42 	"/>
	<polygon class="st10" points="1046.11,577.56 1032,569.5 1032,537.5 1060,521.5 1073.86,529.42 	"/>
	<polygon class="st0" points="1032,601.5 1004,601.5 1004,585.5 1032,569.5 1045.86,577.42 	"/>
	<polygon class="st6" points="1101.86,433.5 1088,441.5 1060,425.5 1060,393.5 1073.86,385 	"/>
	<polygon class="st10" points="1073.86,385.5 1060,393.5 1032,377.5 1032,345.5 1045.86,337 	"/>
	<polygon class="st0" points="1045.86,337.5 1032,345.5 1004,329.5 1004,313.5 1032,313.5 	"/>
	<polygon class="st10" points="948,601.5 948,585.5 976,569.5 1004,585.5 1004,601.5 	"/>
	<polygon class="st5" points="864,313.5 780,457.5 864,601.5 1032,601.5 1116,457.5 1032,313.5 	"/>
</g>
<g>
	<polygon class="st0" points="1088,536 1116,520 1144,536 1144,568 1116,584 1088,568 	"/>
	<polygon class="st0" points="1256,536 1284,520 1312,536 1312,568 1284,584 1256,568 	"/>
	<polygon class="st6" points="1144,536 1172,520 1200,536 1200,568 1172,584 1144,568 	"/>
	<polygon class="st10" points="1116,584 1144,568 1172,584 1172,616 1144,632 1116,616 	"/>
	<polygon class="st10" points="1284,584 1312,568 1340,584 1340,616 1312,632 1284,616 	"/>
	<polygon class="st0" points="1172,584 1200,568 1228,584 1228,616 1200,632 1172,616 	"/>
	<polygon class="st6" points="1228,584 1256,568 1284,584 1284,616 1256,632 1228,616 	"/>
	<polygon class="st6" points="1060,584 1088,568 1116,584 1116,616 1088,632 1060,616 	"/>
	<polygon class="st0" points="1172,680 1200,664 1228,680 1228,712 1200,728 1172,712 	"/>
	<polygon class="st6" points="1228,680 1256,664 1284,680 1284,712 1256,728 1228,712 	"/>
	<polygon class="st10" points="1200,632 1228,616 1256,632 1256,664 1228,680 1200,664 	"/>
	<polygon class="st0" points="1172,488 1200,472 1228,488 1228,520 1200,536 1172,520 	"/>
	<polygon class="st6" points="1228,488 1256,472 1284,488 1284,520 1256,536 1228,520 	"/>
	<polygon class="st10" points="1200,536 1228,520 1256,536 1256,568 1228,584 1200,568 	"/>
	<polygon class="st10" points="1116,488 1144,472 1172,488 1172,520 1144,536 1116,520 	"/>
	<polygon class="st0" points="1088,632 1116,616 1144,632 1144,664 1116,680 1088,664 	"/>
	<polygon class="st0" points="1256,632 1284,616 1312,632 1312,664 1284,680 1256,664 	"/>
	<polygon class="st0" points="1340,584 1353.86,576 1368,600 1353.86,623.92 1340,616 	"/>
	<polygon class="st6" points="1144,632 1172,616 1200,632 1200,664 1172,680 1144,664 	"/>
	<polygon class="st0" points="1032,600 1046.14,576 1060,584 1060,616 1046.14,623.5 	"/>
	<polygon class="st10" points="1116,680 1144,664 1172,680 1172,712 1144,728 1116,712 	"/>
	<polygon class="st6" points="1144,456 1144,472 1172,488 1200,472 1200,456 	"/>
	<polygon class="st6" points="1102.14,720 1116,712 1116,680 1088,664 1074.14,671.5 	"/>
	<polygon class="st0" points="1116,744 1144,744 1144,728 1116,712 1102.14,719.5 	"/>
	<polygon class="st10" points="1074.14,672 1088,664 1088,632 1060,616 1046.14,623.5 	"/>
	<polygon class="st6" points="1074.14,528 1088,536 1116,520 1116,488 1102.14,479.5 	"/>
	<polygon class="st0" points="1102.14,480 1116,488 1144,472 1144,456 1116,456 	"/>
	<polygon class="st10" points="1046.14,576 1060,584 1088,568 1088,536 1074.14,527.5 	"/>
	<polygon class="st10" points="1200,456 1200,472 1228,488 1256,472 1256,456 	"/>
	<polygon class="st6" points="1144,744 1144,728 1172,712 1200,728 1200,744 	"/>
	<polygon class="st6" points="1326.11,672.06 1312,664 1312,632 1340,616 1353.86,623.92 	"/>
	<polygon class="st10" points="1298.11,720.06 1284,712 1284,680 1312,664 1325.86,671.92 	"/>
	<polygon class="st0" points="1284,744 1256,744 1256,728 1284,712 1297.86,719.92 	"/>
	<polygon class="st6" points="1353.86,576 1340,584 1312,568 1312,536 1325.86,527.5 	"/>
	<polygon class="st10" points="1325.86,528 1312,536 1284,520 1284,488 1297.86,479.5 	"/>
	<polygon class="st0" points="1297.86,480 1284,488 1256,472 1256,456 1284,456 	"/>
	<polygon class="st10" points="1200,744 1200,728 1228,712 1256,728 1256,744 	"/>
	<polygon class="st5" points="1116,456 1032,600 1116,744 1284,744 1368,600 1284,456 	"/>
</g>
<g>
	<polygon class="st2" points="836,680 864,664 892,680 892,712 864,728 836,712 	"/>
	<polygon class="st0" points="1004,680 1032,664 1060,680 1060,712 1032,728 1004,712 	"/>
	<polygon class="st7" points="892,680 920,664 948,680 948,712 920,728 892,712 	"/>
	<polygon class="st15" points="864,728 892,712 920,728 920,760 892,776 864,760 	"/>
	<polygon class="st10" points="1032,728 1060,712 1088,728 1088,760 1060,776 1032,760 	"/>
	<polygon class="st0" points="920,728 948,712 976,728 976,760 948,776 920,760 	"/>
	<polygon class="st6" points="976,728 1004,712 1032,728 1032,760 1004,776 976,760 	"/>
	<polygon class="st7" points="808,728 836,712 864,728 864,760 836,776 808,760 	"/>
	<polygon class="st0" points="920,824 948,808 976,824 976,856 948,872 920,856 	"/>
	<polygon class="st6" points="976,824 1004,808 1032,824 1032,856 1004,872 976,856 	"/>
	<polygon class="st10" points="948,776 976,760 1004,776 1004,808 976,824 948,808 	"/>
	<polygon class="st0" points="920,632 948,616 976,632 976,664 948,680 920,664 	"/>
	<polygon class="st6" points="976,632 1004,616 1032,632 1032,664 1004,680 976,664 	"/>
	<polygon class="st10" points="948,680 976,664 1004,680 1004,712 976,728 948,712 	"/>
	<polygon class="st15" points="864,632 892,616 920,632 920,664 892,680 864,664 	"/>
	<polygon class="st0" points="836,776 864,760 892,776 892,808 864,824 836,808 	"/>
	<polygon class="st0" points="1004,776 1032,760 1060,776 1060,808 1032,824 1004,808 	"/>
	<polygon class="st0" points="1088,728 1101.86,720 1116,744 1101.86,767.92 1088,760 	"/>
	<polygon class="st6" points="892,776 920,760 948,776 948,808 920,824 892,808 	"/>
	<polygon class="st2" points="780,744 794.14,720 808,728 808,760 794.14,767.5 	"/>
	<polygon class="st10" points="864,824 892,808 920,824 920,856 892,872 864,856 	"/>
	<polygon class="st6" points="892,600 892,616 920,632 948,616 948,600 	"/>
	<polygon class="st6" points="850.14,864 864,856 864,824 836,808 822.14,815.5 	"/>
	<polygon class="st0" points="864,888 892,888 892,872 864,856 850.14,863.5 	"/>
	<polygon class="st10" points="822.14,816 836,808 836,776 808,760 794.14,767.5 	"/>
	<polygon class="st7" points="822.14,672 836,680 864,664 864,632 850.14,623.5 	"/>
	<polygon class="st2" points="850.14,624 864,632 892,616 892,600 864,600 	"/>
	<polygon class="st15" points="794.14,720 808,728 836,712 836,680 822.14,671.5 	"/>
	<polygon class="st10" points="948,600 948,616 976,632 1004,616 1004,600 	"/>
	<polygon class="st6" points="892,888 892,872 920,856 948,872 948,888 	"/>
	<polygon class="st6" points="1074.11,816.06 1060,808 1060,776 1088,760 1101.86,767.92 	"/>
	<polygon class="st10" points="1046.11,864.06 1032,856 1032,824 1060,808 1073.86,815.92 	"/>
	<polygon class="st0" points="1032,888 1004,888 1004,872 1032,856 1045.86,863.92 	"/>
	<polygon class="st6" points="1101.86,720 1088,728 1060,712 1060,680 1073.86,671.5 	"/>
	<polygon class="st10" points="1073.86,672 1060,680 1032,664 1032,632 1045.86,623.5 	"/>
	<polygon class="st0" points="1045.86,624 1032,632 1004,616 1004,600 1032,600 	"/>
	<polygon class="st10" points="948,888 948,872 976,856 1004,872 1004,888 	"/>
	<polygon class="st5" points="864,600 780,744 864,888 1032,888 1116,744 1032,600 	"/>
</g>
<g>
	<polygon class="st1" points="332,392 360,376 388,392 388,424 360,440 332,424 	"/>
	<polygon class="st2" points="500,392 528,376 556,392 556,424 528,440 500,424 	"/>
	<polygon class="st12" points="388,392 416,376 444,392 444,424 416,440 388,424 	"/>
	<polygon class="st11" points="360,440 388,424 416,440 416,472 388,488 360,472 	"/>
	<polygon class="st15" points="528,440 556,424 584,440 584,472 556,488 528,472 	"/>
	<polygon class="st2" points="416,440 444,424 472,440 472,472 444,488 416,472 	"/>
	<polygon class="st7" points="472,440 500,424 528,440 528,472 500,488 472,472 	"/>
	<polygon class="st12" points="304,440 332,424 360,440 360,472 332,488 304,472 	"/>
	<polygon class="st2" points="416,536 444,520 472,536 472,568 444,584 416,568 	"/>
	<polygon class="st7" points="472,536 500,520 528,536 528,568 500,584 472,568 	"/>
	<polygon class="st15" points="444,488 472,472 500,488 500,520 472,536 444,520 	"/>
	<polygon class="st2" points="416,344 444,328 472,344 472,376 444,392 416,376 	"/>
	<polygon class="st7" points="472,344 500,328 528,344 528,376 500,392 472,376 	"/>
	<polygon class="st15" points="444,392 472,376 500,392 500,424 472,440 444,424 	"/>
	<polygon class="st11" points="360,344 388,328 416,344 416,376 388,392 360,376 	"/>
	<polygon class="st2" points="332,488 360,472 388,488 388,520 360,536 332,520 	"/>
	<polygon class="st2" points="500,488 528,472 556,488 556,520 528,536 500,520 	"/>
	<polygon class="st2" points="584,440 597.86,432 612,456 597.86,479.92 584,472 	"/>
	<polygon class="st7" points="388,488 416,472 444,488 444,520 416,536 388,520 	"/>
	<polygon class="st1" points="276,456 290.14,432 304,440 304,472 290.14,479.5 	"/>
	<polygon class="st15" points="360,536 388,520 416,536 416,568 388,584 360,568 	"/>
	<polygon class="st7" points="388,312 388,328 416,344 444,328 444,312 	"/>
	<polygon class="st7" points="346.14,576 360,568 360,536 332,520 318.14,527.5 	"/>
	<polygon class="st2" points="360,600 388,600 388,584 360,568 346.14,575.5 	"/>
	<polygon class="st15" points="318.14,528 332,520 332,488 304,472 290.14,479.5 	"/>
	<polygon class="st12" points="318.14,384 332,392 360,376 360,344 346.14,335.5 	"/>
	<polygon class="st1" points="346.14,336 360,344 388,328 388,312 360,312 	"/>
	<polygon class="st11" points="290.14,432 304,440 332,424 332,392 318.14,383.5 	"/>
	<polygon class="st15" points="444,312 444,328 472,344 500,328 500,312 	"/>
	<polygon class="st7" points="388,600 388,584 416,568 444,584 444,600 	"/>
	<polygon class="st7" points="570.11,528.06 556,520 556,488 584,472 597.86,479.92 	"/>
	<polygon class="st15" points="542.11,576.06 528,568 528,536 556,520 569.86,527.92 	"/>
	<polygon class="st2" points="528,600 500,600 500,584 528,568 541.86,575.92 	"/>
	<polygon class="st7" points="597.86,432 584,440 556,424 556,392 569.86,383.5 	"/>
	<polygon class="st15" points="569.86,384 556,392 528,376 528,344 541.86,335.5 	"/>
	<polygon class="st2" points="541.86,336 528,344 500,328 500,312 528,312 	"/>
	<polygon class="st15" points="444,600 444,584 472,568 500,584 500,600 	"/>
	<polygon class="st5" points="360,312 276,456 360,600 528,600 612,456 528,312 	"/>
</g>
<g>
	<polygon class="st2" points="584,824 612,808 640,824 640,856 612,872 584,856 	"/>
	<polygon class="st0" points="752,824 780,808 808,824 808,856 780,872 752,856 	"/>
	<polygon class="st7" points="640,824 668,808 696,824 696,856 668,872 640,856 	"/>
	<polygon class="st15" points="612,872 640,856 668,872 668,904 640,920 612,904 	"/>
	<polygon class="st10" points="780,872 808,856 836,872 836,904 808,920 780,904 	"/>
	<polygon class="st2" points="668,872 696,856 724,872 724,904 696,920 668,904 	"/>
	<polygon class="st6" points="724,872 752,856 780,872 780,904 752,920 724,904 	"/>
	<polygon class="st7" points="556,872 584,856 612,872 612,904 584,920 556,904 	"/>
	<polygon class="st2" points="668,968 696,952 724,968 724,1000 696,1016 668,1000 	"/>
	<polygon class="st7" points="724,968 752,952 780,968 780,1000 752,1016 724,1000 	"/>
	<polygon class="st15" points="696,920 724,904 752,920 752,952 724,968 696,952 	"/>
	<polygon class="st2" points="668,776 696,760 724,776 724,808 696,824 668,808 	"/>
	<polygon class="st6" points="724,776 752,760 780,776 780,808 752,824 724,808 	"/>
	<polygon class="st10" points="696,824 724,808 752,824 752,856 724,872 696,856 	"/>
	<polygon class="st15" points="612,776 640,760 668,776 668,808 640,824 612,808 	"/>
	<polygon class="st2" points="584,920 612,904 640,920 640,952 612,968 584,952 	"/>
	<polygon class="st2" points="752,920 780,904 808,920 808,952 780,968 752,952 	"/>
	<polygon class="st0" points="836,872 849.86,864 864,888 849.86,911.92 836,904 	"/>
	<polygon class="st7" points="640,920 668,904 696,920 696,952 668,968 640,952 	"/>
	<polygon class="st2" points="528,888 542.14,864 556,872 556,904 542.14,911.5 	"/>
	<polygon class="st15" points="612,968 640,952 668,968 668,1000 640,1016 612,1000 	"/>
	<polygon class="st7" points="640,744 640,760 668,776 696,760 696,744 	"/>
	<polygon class="st7" points="598.14,1008 612,1000 612,968 584,952 570.14,959.5 	"/>
	<polygon class="st2" points="612,1032 640,1032 640,1016 612,1000 598.14,1007.5 	"/>
	<polygon class="st15" points="570.14,960 584,952 584,920 556,904 542.14,911.5 	"/>
	<polygon class="st7" points="570.14,816 584,824 612,808 612,776 598.14,767.5 	"/>
	<polygon class="st2" points="598.14,768 612,776 640,760 640,744 612,744 	"/>
	<polygon class="st15" points="542.14,864 556,872 584,856 584,824 570.14,815.5 	"/>
	<polygon class="st15" points="696,744 696,760 724,776 752,760 752,744 	"/>
	<polygon class="st7" points="640,1032 640,1016 668,1000 696,1016 696,1032 	"/>
	<polygon class="st7" points="822.11,960.06 808,952 808,920 836,904 849.86,911.92 	"/>
	<polygon class="st15" points="794.11,1008.06 780,1000 780,968 808,952 821.86,959.92 	"/>
	<polygon class="st2" points="780,1032 752,1032 752,1016 780,1000 793.86,1007.92 	"/>
	<polygon class="st6" points="849.86,864 836,872 808,856 808,824 821.86,815.5 	"/>
	<polygon class="st10" points="821.86,816 808,824 780,808 780,776 793.86,767.5 	"/>
	<polygon class="st0" points="793.86,768 780,776 752,760 752,744 780,744 	"/>
	<polygon class="st15" points="696,1032 696,1016 724,1000 752,1016 752,1032 	"/>
	<polygon class="st5" points="612,744 528,888 612,1032 780,1032 864,888 780,744 	"/>
</g>
<g>
	<polygon class="st13" points="332,680 360,664 388,680 388,712 360,728 332,712 	"/>
	<polygon class="st2" points="500,680 528,664 556,680 556,712 528,728 500,712 	"/>
	<polygon class="st3" points="388,680 416,664 444,680 444,712 416,728 388,712 	"/>
	<polygon class="st8" points="360,728 388,712 416,728 416,760 388,776 360,760 	"/>
	<polygon class="st15" points="528,728 556,712 584,728 584,760 556,776 528,760 	"/>
	<polygon class="st2" points="416,728 444,712 472,728 472,760 444,776 416,760 	"/>
	<polygon class="st7" points="472,728 500,712 528,728 528,760 500,776 472,760 	"/>
	<polygon class="st3" points="304,728 332,712 360,728 360,760 332,776 304,760 	"/>
	<polygon class="st2" points="416,824 444,808 472,824 472,856 444,872 416,856 	"/>
	<polygon class="st7" points="472,824 500,808 528,824 528,856 500,872 472,856 	"/>
	<polygon class="st15" points="444,776 472,760 500,776 500,808 472,824 444,808 	"/>
	<polygon class="st2" points="416,632 444,616 472,632 472,664 444,680 416,664 	"/>
	<polygon class="st7" points="472,632 500,616 528,632 528,664 500,680 472,664 	"/>
	<polygon class="st15" points="444,680 472,664 500,680 500,712 472,728 444,712 	"/>
	<polygon class="st8" points="360,632 388,616 416,632 416,664 388,680 360,664 	"/>
	<polygon class="st13" points="332,776 360,760 388,776 388,808 360,824 332,808 	"/>
	<polygon class="st2" points="500,776 528,760 556,776 556,808 528,824 500,808 	"/>
	<polygon class="st2" points="584,728 597.86,720 612,744 597.86,767.92 584,760 	"/>
	<polygon class="st3" points="388,776 416,760 444,776 444,808 416,824 388,808 	"/>
	<polygon class="st13" points="276,744 290.14,720 304,728 304,760 290.14,767.5 	"/>
	<polygon class="st8" points="360,824 388,808 416,824 416,856 388,872 360,856 	"/>
	<polygon class="st7" points="388,600 388,616 416,632 444,616 444,600 	"/>
	<polygon class="st3" points="346.14,864 360,856 360,824 332,808 318.14,815.5 	"/>
	<polygon class="st13" points="360,888 388,888 388,872 360,856 346.14,863.5 	"/>
	<polygon class="st8" points="318.14,816 332,808 332,776 304,760 290.14,767.5 	"/>
	<polygon class="st3" points="318.14,672 332,680 360,664 360,632 346.14,623.5 	"/>
	<polygon class="st13" points="346.14,624 360,632 388,616 388,600 360,600 	"/>
	<polygon class="st8" points="290.14,720 304,728 332,712 332,680 318.14,671.5 	"/>
	<polygon class="st15" points="444,600 444,616 472,632 500,616 500,600 	"/>
	<polygon class="st7" points="388,888 388,872 416,856 444,872 444,888 	"/>
	<polygon class="st7" points="570.11,816.06 556,808 556,776 584,760 597.86,767.92 	"/>
	<polygon class="st15" points="542.11,864.06 528,856 528,824 556,808 569.86,815.92 	"/>
	<polygon class="st2" points="528,888 500,888 500,872 528,856 541.86,863.92 	"/>
	<polygon class="st7" points="597.86,720 584,728 556,712 556,680 569.86,671.5 	"/>
	<polygon class="st15" points="569.86,672 556,680 528,664 528,632 541.86,623.5 	"/>
	<polygon class="st2" points="541.86,624 528,632 500,616 500,600 528,600 	"/>
	<polygon class="st15" points="444,888 444,872 472,856 500,872 500,888 	"/>
	<polygon class="st5" points="360,600 276,744 360,888 528,888 612,744 528,600 	"/>
</g>
<g>
	<polygon class="st2" points="332,104 360,88 388,104 388,136 360,152 332,136 	"/>
	<polygon class="st2" points="500,104 528,88 556,104 556,136 528,152 500,136 	"/>
	<polygon class="st7" points="388,104 416,88 444,104 444,136 416,152 388,136 	"/>
	<polygon class="st11" points="360,152 388,136 416,152 416,184 388,200 360,184 	"/>
	<polygon class="st15" points="528,152 556,136 584,152 584,184 556,200 528,184 	"/>
	<polygon class="st2" points="416,152 444,136 472,152 472,184 444,200 416,184 	"/>
	<polygon class="st7" points="472,152 500,136 528,152 528,184 500,200 472,184 	"/>
	<polygon class="st12" points="304,152 332,136 360,152 360,184 332,200 304,184 	"/>
	<polygon class="st2" points="416,248 444,232 472,248 472,280 444,296 416,280 	"/>
	<polygon class="st7" points="472,248 500,232 528,248 528,280 500,296 472,280 	"/>
	<polygon class="st15" points="444,200 472,184 500,200 500,232 472,248 444,232 	"/>
	<polygon class="st2" points="416,56 444,40 472,56 472,88 444,104 416,88 	"/>
	<polygon class="st7" points="472,56 500,40 528,56 528,88 500,104 472,88 	"/>
	<polygon class="st15" points="444,104 472,88 500,104 500,136 472,152 444,136 	"/>
	<polygon class="st15" points="360,56 388,40 416,56 416,88 388,104 360,88 	"/>
	<polygon class="st1" points="332,200 360,184 388,200 388,232 360,248 332,232 	"/>
	<polygon class="st2" points="500,200 528,184 556,200 556,232 528,248 500,232 	"/>
	<polygon class="st2" points="584,152 597.86,144 612,168 597.86,191.92 584,184 	"/>
	<polygon class="st12" points="388,200 416,184 444,200 444,232 416,248 388,232 	"/>
	<polygon class="st1" points="276,168 290.14,144 304,152 304,184 290.14,191.5 	"/>
	<polygon class="st11" points="360,248 388,232 416,248 416,280 388,296 360,280 	"/>
	<polygon class="st7" points="388,24 388,40 416,56 444,40 444,24 	"/>
	<polygon class="st12" points="346.14,288 360,280 360,248 332,232 318.14,239.5 	"/>
	<polygon class="st1" points="360,312 388,312 388,296 360,280 346.14,287.5 	"/>
	<polygon class="st11" points="318.14,240 332,232 332,200 304,184 290.14,191.5 	"/>
	<polygon class="st7" points="318.14,96 332,104 360,88 360,56 346.14,47.5 	"/>
	<polygon class="st2" points="346.14,48 360,56 388,40 388,24 360,24 	"/>
	<polygon class="st15" points="290.14,144 304,152 332,136 332,104 318.14,95.5 	"/>
	<polygon class="st15" points="444,24 444,40 472,56 500,40 500,24 	"/>
	<polygon class="st7" points="388,312 388,296 416,280 444,296 444,312 	"/>
	<polygon class="st7" points="570.11,240.06 556,232 556,200 584,184 597.86,191.92 	"/>
	<polygon class="st15" points="542.11,288.06 528,280 528,248 556,232 569.86,239.92 	"/>
	<polygon class="st2" points="528,312 500,312 500,296 528,280 541.86,287.92 	"/>
	<polygon class="st7" points="597.86,144 584,152 556,136 556,104 569.86,95.5 	"/>
	<polygon class="st15" points="569.86,96 556,104 528,88 528,56 541.86,47.5 	"/>
	<polygon class="st2" points="541.86,48 528,56 500,40 500,24 528,24 	"/>
	<polygon class="st15" points="444,312 444,296 472,280 500,296 500,312 	"/>
	<polygon class="st5" points="360,24 276,168 360,312 528,312 612,168 528,24 	"/>
</g>
</svg>
