<?xml version="1.0" encoding="utf-8"?>
<!-- Generator: Adobe Illustrator 16.0.0, SVG Export Plug-In . SVG Version: 6.00 Build 0)  -->
<!DOCTYPE svg PUBLIC "-//W3C//DTD SVG 1.1//EN" "http://www.w3.org/Graphics/SVG/1.1/DTD/svg11.dtd">
<svg version="1.1" id="Layer_1" xmlns="http://www.w3.org/2000/svg" xmlns:xlink="http://www.w3.org/1999/xlink" x="0px" y="0px"
	 width="1396px" height="480px" viewBox="0 0 1396 480" style="enable-background:new 0 0 1396 480;" xml:space="preserve">
<style type="text/css">
<![CDATA[
	.st0{fill:#147846;}
	.st1{fill:#1E8FDA;}
	.st2{fill:#EDE021;}
	.st3{fill:#8C8C8C;}
	.st4{fill:#8CDC8C;}
	.st5{fill:none;stroke:#000000;stroke-width:10;stroke-miterlimit:10;}
	.st6{fill:#288C5A;}
	.st7{fill:#FCEE21;}
	.st8{fill:#646464;}
	.st9{fill:#64B464;}
	.st10{fill:#006432;}
	.st11{fill:#0071BC;}
	.st12{fill:#3FA9F5;}
	.st13{fill:#787878;}
	.st14{fill:#78C878;}
	.st15{fill:#DCCD00;}
]]>
</style>
<g>
	<polygon class="st1" points="80,104 108,88 136,104 136,136 108,152 80,136 	"/>
	<polygon class="st1" points="248,104 276,88 304,104 304,136 276,152 248,136 	"/>
	<polygon class="st12" points="136,104 164,88 192,104 192,136 164,152 136,136 	"/>
	<polygon class="st11" points="108,152 136,136 164,152 164,184 136,200 108,184 	"/>
	<polygon class="st11" points="276,152 304,136 332,152 332,184 304,200 276,184 	"/>
	<polygon class="st1" points="164,152 192,136 220,152 220,184 192,200 164,184 	"/>
	<polygon class="st12" points="220,152 248,136 276,152 276,184 248,200 220,184 	"/>
	<polygon class="st12" points="52,152 80,136 108,152 108,184 80,200 52,184 	"/>
	<polygon class="st1" points="164,248 192,232 220,248 220,280 192,296 164,280 	"/>
	<polygon class="st12" points="220,248 248,232 276,248 276,280 248,296 220,280 	"/>
	<polygon class="st11" points="192,200 220,184 248,200 248,232 220,248 192,232 	"/>
	<polygon class="st1" points="164,56 192,40 220,56 220,88 192,104 164,88 	"/>
	<polygon class="st12" points="220,56 248,40 276,56 276,88 248,104 220,88 	"/>
	<polygon class="st11" points="192,104 220,88 248,104 248,136 220,152 192,136 	"/>
	<polygon class="st11" points="108,56 136,40 164,56 164,88 136,104 108,88 	"/>
	<polygon class="st1" points="80,200 108,184 136,200 136,232 108,248 80,232 	"/>
	<polygon class="st1" points="248,200 276,184 304,200 304,232 276,248 248,232 	"/>
	<polygon class="st1" points="332,152 345.86,144 360,168 345.86,191.92 332,184 	"/>
	<polygon class="st12" points="136,200 164,184 192,200 192,232 164,248 136,232 	"/>
	<polygon class="st1" points="24,168 38.14,144 52,152 52,184 38.14,191.5 	"/>
	<polygon class="st11" points="108,248 136,232 164,248 164,280 136,296 108,280 	"/>
	<polygon class="st12" points="136,24 136,40 164,56 192,40 192,24 	"/>
	<polygon class="st12" points="94.14,288 108,280 108,248 80,232 66.14,239.5 	"/>
	<polygon class="st1" points="108,312 136,312 136,296 108,280 94.14,287.5 	"/>
	<polygon class="st11" points="66.14,240 80,232 80,200 52,184 38.14,191.5 	"/>
	<polygon class="st12" points="66.14,96 80,104 108,88 108,56 94.14,47.5 	"/>
	<polygon class="st1" points="94.14,48 108,56 136,40 136,24 108,24 	"/>
	<polygon class="st11" points="38.14,144 52,152 80,136 80,104 66.14,95.5 	"/>
	<polygon class="st11" points="192,24 192,40 220,56 248,40 248,24 	"/>
	<polygon class="st12" points="136,312 136,296 164,280 192,296 192,312 	"/>
	<polygon class="st12" points="318.11,240.06 304,232 304,200 332,184 345.86,191.92 	"/>
	<polygon class="st11" points="290.11,288.06 276,280 276,248 304,232 317.86,239.92 	"/>
	<polygon class="st1" points="276,312 248,312 248,296 276,280 289.86,287.92 	"/>
	<polygon class="st12" points="345.86,144 332,152 304,136 304,104 317.86,95.5 	"/>
	<polygon class="st11" points="317.86,96 304,104 276,88 276,56 289.86,47.5 	"/>
	<polygon class="st1" points="289.86,48 276,56 248,40 248,24 276,24 	"/>
	<polygon class="st11" points="192,312 192,296 220,280 248,296 248,312 	"/>
	<polygon class="st5" points="108,24 24,168 108,312 276,312 360,168 276,24 	"/>
</g>
<g>
	<polygon class="st14" points="584,104 612,88 640,104 640,136 612,152 584,136 	"/>
	<polygon class="st14" points="752,104 780,88 808,104 808,136 780,152 752,136 	"/>
	<polygon class="st4" points="640,104 668,88 696,104 696,136 668,152 640,136 	"/>
	<polygon class="st9" points="612,152 640,136 668,152 668,184 640,200 612,184 	"/>
	<polygon class="st9" points="780,152 808,136 836,152 836,184 808,200 780,184 	"/>
	<polygon class="st14" points="668,152 696,136 724,152 724,184 696,200 668,184 	"/>
	<polygon class="st4" points="724,152 752,136 780,152 780,184 752,200 724,184 	"/>
	<polygon class="st4" points="556,152 584,136 612,152 612,184 584,200 556,184 	"/>
	<polygon class="st14" points="668,248 696,232 724,248 724,280 696,296 668,280 	"/>
	<polygon class="st4" points="724,248 752,232 780,248 780,280 752,296 724,280 	"/>
	<polygon class="st9" points="696,200 724,184 752,200 752,232 724,248 696,232 	"/>
	<polygon class="st14" points="668,56 696,40 724,56 724,88 696,104 668,88 	"/>
	<polygon class="st4" points="724,56 752,40 780,56 780,88 752,104 724,88 	"/>
	<polygon class="st9" points="696,104 724,88 752,104 752,136 724,152 696,136 	"/>
	<polygon class="st9" points="612,56 640,40 668,56 668,88 640,104 612,88 	"/>
	<polygon class="st14" points="584,200 612,184 640,200 640,232 612,248 584,232 	"/>
	<polygon class="st14" points="752,200 780,184 808,200 808,232 780,248 752,232 	"/>
	<polygon class="st14" points="836,152 849.86,144 864,168 849.86,191.92 836,184 	"/>
	<polygon class="st4" points="640,200 668,184 696,200 696,232 668,248 640,232 	"/>
	<polygon class="st14" points="528,168 542.14,144 556,152 556,184 542.14,191.5 	"/>
	<polygon class="st9" points="612,248 640,232 668,248 668,280 640,296 612,280 	"/>
	<polygon class="st4" points="640,24 640,40 668,56 696,40 696,24 	"/>
	<polygon class="st4" points="598.14,288 612,280 612,248 584,232 570.14,239.5 	"/>
	<polygon class="st14" points="612,312 640,312 640,296 612,280 598.14,287.5 	"/>
	<polygon class="st9" points="570.14,240 584,232 584,200 556,184 542.14,191.5 	"/>
	<polygon class="st4" points="570.14,96 584,104 612,88 612,56 598.14,47.5 	"/>
	<polygon class="st14" points="598.14,48 612,56 640,40 640,24 612,24 	"/>
	<polygon class="st9" points="542.14,144 556,152 584,136 584,104 570.14,95.5 	"/>
	<polygon class="st9" points="696,24 696,40 724,56 752,40 752,24 	"/>
	<polygon class="st4" points="640,312 640,296 668,280 696,296 696,312 	"/>
	<polygon class="st4" points="822.11,240.06 808,232 808,200 836,184 849.86,191.92 	"/>
	<polygon class="st9" points="794.11,288.06 780,280 780,248 808,232 821.86,239.92 	"/>
	<polygon class="st14" points="780,312 752,312 752,296 780,280 793.86,287.92 	"/>
	<polygon class="st4" points="849.86,144 836,152 808,136 808,104 821.86,95.5 	"/>
	<polygon class="st9" points="821.86,96 808,104 780,88 780,56 793.86,47.5 	"/>
	<polygon class="st14" points="793.86,48 780,56 752,40 752,24 780,24 	"/>
	<polygon class="st9" points="696,312 696,296 724,280 752,296 752,312 	"/>
	<polygon class="st5" points="612,24 528,168 612,312 780,312 864,168 780,24 	"/>
</g>
<g>
	<polygon class="st13" points="1088,104 1116,88 1144,104 1144,136 1116,152 1088,136 	"/>
	<polygon class="st13" points="1256,104 1284,88 1312,104 1312,136 1284,152 1256,136 	"/>
	<polygon class="st3" points="1144,104 1172,88 1200,104 1200,136 1172,152 1144,136 	"/>
	<polygon class="st8" points="1116,152 1144,136 1172,152 1172,184 1144,200 1116,184 	"/>
	<polygon class="st8" points="1284,152 1312,136 1340,152 1340,184 1312,200 1284,184 	"/>
	<polygon class="st13" points="1172,152 1200,136 1228,152 1228,184 1200,200 1172,184 	"/>
	<polygon class="st3" points="1228,152 1256,136 1284,152 1284,184 1256,200 1228,184 	"/>
	<polygon class="st3" points="1060,152 1088,136 1116,152 1116,184 1088,200 1060,184 	"/>
	<polygon class="st13" points="1172,248 1200,232 1228,248 1228,280 1200,296 1172,280 	"/>
	<polygon class="st3" points="1228,248 1256,232 1284,248 1284,280 1256,296 1228,280 	"/>
	<polygon class="st8" points="1200,200 1228,184 1256,200 1256,232 1228,248 1200,232 	"/>
	<polygon class="st13" points="1172,56 1200,40 1228,56 1228,88 1200,104 1172,88 	"/>
	<polygon class="st3" points="1228,56 1256,40 1284,56 1284,88 1256,104 1228,88 	"/>
	<polygon class="st8" points="1200,104 1228,88 1256,104 1256,136 1228,152 1200,136 	"/>
	<polygon class="st8" points="1116,56 1144,40 1172,56 1172,88 1144,104 1116,88 	"/>
	<polygon class="st13" points="1088,200 1116,184 1144,200 1144,232 1116,248 1088,232 	"/>
	<polygon class="st13" points="1256,200 1284,184 1312,200 1312,232 1284,248 1256,232 	"/>
	<polygon class="st13" points="1340,152 1353.86,144 1368,168 1353.86,191.92 1340,184 	"/>
	<polygon class="st3" points="1144,200 1172,184 1200,200 1200,232 1172,248 1144,232 	"/>
	<polygon class="st13" points="1032,168 1046.14,144 1060,152 1060,184 1046.14,191.5 	"/>
	<polygon class="st8" points="1116,248 1144,232 1172,248 1172,280 1144,296 1116,280 	"/>
	<polygon class="st3" points="1144,24 1144,40 1172,56 1200,40 1200,24 	"/>
	<polygon class="st3" points="1102.14,288 1116,280 1116,248 1088,232 1074.14,239.5 	"/>
	<polygon class="st13" points="1116,312 1144,312 1144,296 1116,280 1102.14,287.5 	"/>
	<polygon class="st8" points="1074.14,240 1088,232 1088,200 1060,184 1046.14,191.5 	"/>
	<polygon class="st3" points="1074.14,96 1088,104 1116,88 1116,56 1102.14,47.5 	"/>
	<polygon class="st13" points="1102.14,48 1116,56 1144,40 1144,24 1116,24 	"/>
	<polygon class="st8" points="1046.14,144 1060,152 1088,136 1088,104 1074.14,95.5 	"/>
	<polygon class="st8" points="1200,24 1200,40 1228,56 1256,40 1256,24 	"/>
	<polygon class="st3" points="1144,312 1144,296 1172,280 1200,296 1200,312 	"/>
	<polygon class="st3" points="1326.11,240.06 1312,232 1312,200 1340,184 1353.86,191.92 	"/>
	<polygon class="st8" points="1298.11,288.06 1284,280 1284,248 1312,232 1325.86,239.92 	"/>
	<polygon class="st13" points="1284,312 1256,312 1256,296 1284,280 1297.86,287.92 	"/>
	<polygon class="st3" points="1353.86,144 1340,152 1312,136 1312,104 1325.86,95.5 	"/>
	<polygon class="st8" points="1325.86,96 1312,104 1284,88 1284,56 1297.86,47.5 	"/>
	<polygon class="st13" points="1297.86,48 1284,56 1256,40 1256,24 1284,24 	"/>
	<polygon class="st8" points="1200,312 1200,296 1228,280 1256,296 1256,312 	"/>
	<polygon class="st5" points="1116,24 1032,168 1116,312 1284,312 1368,168 1284,24 	"/>
</g>
<g>
	<polygon class="st0" points="836,248 864,232 892,248 892,280 864,296 836,280 	"/>
	<polygon class="st0" points="1004,248 1032,232 1060,248 1060,280 1032,296 1004,280 	"/>
	<polygon class="st6" points="892,248 920,232 948,248 948,280 920,296 892,280 	"/>
	<polygon class="st10" points="864,296 892,280 920,296 920,328 892,344 864,328 	"/>
	<polygon class="st10" points="1032,296 1060,280 1088,296 1088,328 1060,344 1032,328 	"/>
	<polygon class="st0" points="920,296 948,280 976,296 976,328 948,344 920,328 	"/>
	<polygon class="st6" points="976,296 1004,280 1032,296 1032,328 1004,344 976,328 	"/>
	<polygon class="st6" points="808,296 836,280 864,296 864,328 836,344 808,328 	"/>
	<polygon class="st0" points="920,392 948,376 976,392 976,424 948,440 920,424 	"/>
	<polygon class="st6" points="976,392 1004,376 1032,392 1032,424 1004,440 976,424 	"/>
	<polygon class="st10" points="948,344 976,328 1004,344 1004,376 976,392 948,376 	"/>
	<polygon class="st0" points="920,200 948,184 976,200 976,232 948,248 920,232 	"/>
	<polygon class="st6" points="976,200 1004,184 1032,200 1032,232 1004,248 976,232 	"/>
	<polygon class="st10" points="948,248 976,232 1004,248 1004,280 976,296 948,280 	"/>
	<polygon class="st10" points="864,200 892,184 920,200 920,232 892,248 864,232 	"/>
	<polygon class="st0" points="836,344 864,328 892,344 892,376 864,392 836,376 	"/>
	<polygon class="st0" points="1004,344 1032,328 1060,344 1060,376 1032,392 1004,376 	"/>
	<polygon class="st0" points="1088,296 1101.86,288 1116,312 1101.86,335.92 1088,328 	"/>
	<polygon class="st6" points="892,344 920,328 948,344 948,376 920,392 892,376 	"/>
	<polygon class="st0" points="780,312 794.14,288 808,296 808,328 794.14,335.5 	"/>
	<polygon class="st10" points="864,392 892,376 920,392 920,424 892,440 864,424 	"/>
	<polygon class="st6" points="892,168 892,184 920,200 948,184 948,168 	"/>
	<polygon class="st6" points="850.14,432 864,424 864,392 836,376 822.14,383.5 	"/>
	<polygon class="st0" points="864,456 892,456 892,440 864,424 850.14,431.5 	"/>
	<polygon class="st10" points="822.14,384 836,376 836,344 808,328 794.14,335.5 	"/>
	<polygon class="st6" points="822.14,240 836,248 864,232 864,200 850.14,191.5 	"/>
	<polygon class="st0" points="850.14,192 864,200 892,184 892,168 864,168 	"/>
	<polygon class="st10" points="794.14,288 808,296 836,280 836,248 822.14,239.5 	"/>
	<polygon class="st10" points="948,168 948,184 976,200 1004,184 1004,168 	"/>
	<polygon class="st6" points="892,456 892,440 920,424 948,440 948,456 	"/>
	<polygon class="st6" points="1074.11,384.06 1060,376 1060,344 1088,328 1101.86,335.92 	"/>
	<polygon class="st10" points="1046.11,432.06 1032,424 1032,392 1060,376 1073.86,383.92 	"/>
	<polygon class="st0" points="1032,456 1004,456 1004,440 1032,424 1045.86,431.92 	"/>
	<polygon class="st6" points="1101.86,288 1088,296 1060,280 1060,248 1073.86,239.5 	"/>
	<polygon class="st10" points="1073.86,240 1060,248 1032,232 1032,200 1045.86,191.5 	"/>
	<polygon class="st0" points="1045.86,192 1032,200 1004,184 1004,168 1032,168 	"/>
	<polygon class="st10" points="948,456 948,440 976,424 1004,440 1004,456 	"/>
	<polygon class="st5" points="864,168 780,312 864,456 1032,456 1116,312 1032,168 	"/>
</g>
<g>
	<polygon class="st2" points="332,248 360,232 388,248 388,280 360,296 332,280 	"/>
	<polygon class="st2" points="500,248 528,232 556,248 556,280 528,296 500,280 	"/>
	<polygon class="st7" points="388,248 416,232 444,248 444,280 416,296 388,280 	"/>
	<polygon class="st15" points="360,296 388,280 416,296 416,328 388,344 360,328 	"/>
	<polygon class="st15" points="528,296 556,280 584,296 584,328 556,344 528,328 	"/>
	<polygon class="st2" points="416,296 444,280 472,296 472,328 444,344 416,328 	"/>
	<polygon class="st7" points="472,296 500,280 528,296 528,328 500,344 472,328 	"/>
	<polygon class="st7" points="304,296 332,280 360,296 360,328 332,344 304,328 	"/>
	<polygon class="st2" points="416,392 444,376 472,392 472,424 444,440 416,424 	"/>
	<polygon class="st7" points="472,392 500,376 528,392 528,424 500,440 472,424 	"/>
	<polygon class="st15" points="444,344 472,328 500,344 500,376 472,392 444,376 	"/>
	<polygon class="st2" points="416,200 444,184 472,200 472,232 444,248 416,232 	"/>
	<polygon class="st7" points="472,200 500,184 528,200 528,232 500,248 472,232 	"/>
	<polygon class="st15" points="444,248 472,232 500,248 500,280 472,296 444,280 	"/>
	<polygon class="st15" points="360,200 388,184 416,200 416,232 388,248 360,232 	"/>
	<polygon class="st2" points="332,344 360,328 388,344 388,376 360,392 332,376 	"/>
	<polygon class="st2" points="500,344 528,328 556,344 556,376 528,392 500,376 	"/>
	<polygon class="st2" points="584,296 597.86,288 612,312 597.86,335.92 584,328 	"/>
	<polygon class="st7" points="388,344 416,328 444,344 444,376 416,392 388,376 	"/>
	<polygon class="st2" points="276,312 290.14,288 304,296 304,328 290.14,335.5 	"/>
	<polygon class="st15" points="360,392 388,376 416,392 416,424 388,440 360,424 	"/>
	<polygon class="st7" points="388,168 388,184 416,200 444,184 444,168 	"/>
	<polygon class="st7" points="346.14,432 360,424 360,392 332,376 318.14,383.5 	"/>
	<polygon class="st2" points="360,456 388,456 388,440 360,424 346.14,431.5 	"/>
	<polygon class="st15" points="318.14,384 332,376 332,344 304,328 290.14,335.5 	"/>
	<polygon class="st7" points="318.14,240 332,248 360,232 360,200 346.14,191.5 	"/>
	<polygon class="st2" points="346.14,192 360,200 388,184 388,168 360,168 	"/>
	<polygon class="st15" points="290.14,288 304,296 332,280 332,248 318.14,239.5 	"/>
	<polygon class="st15" points="444,168 444,184 472,200 500,184 500,168 	"/>
	<polygon class="st7" points="388,456 388,440 416,424 444,440 444,456 	"/>
	<polygon class="st7" points="570.11,384.06 556,376 556,344 584,328 597.86,335.92 	"/>
	<polygon class="st15" points="542.11,432.06 528,424 528,392 556,376 569.86,383.92 	"/>
	<polygon class="st2" points="528,456 500,456 500,440 528,424 541.86,431.92 	"/>
	<polygon class="st7" points="597.86,288 584,296 556,280 556,248 569.86,239.5 	"/>
	<polygon class="st15" points="569.86,240 556,248 528,232 528,200 541.86,191.5 	"/>
	<polygon class="st2" points="541.86,192 528,200 500,184 500,168 528,168 	"/>
	<polygon class="st15" points="444,456 444,440 472,424 500,440 500,456 	"/>
	<polygon class="st5" points="360,168 276,312 360,456 528,456 612,312 528,168 	"/>
</g>
</svg>
